<?xml version="1.0" encoding="UTF-8" standalone="no"?>
<!DOCTYPE svg PUBLIC "-//W3C//DTD SVG 1.1//EN"
 "http://www.w3.org/Graphics/SVG/1.1/DTD/svg11.dtd">
<!-- Generated by graphviz version 2.44.1 (20200629.0846)
 -->
<!-- Title: godep Pages: 1 -->
<svg width="3761pt" height="420pt"
 viewBox="0.00 0.00 3760.50 420.00" xmlns="http://www.w3.org/2000/svg" xmlns:xlink="http://www.w3.org/1999/xlink">
<g id="graph0" class="graph" transform="scale(1 1) rotate(0) translate(4 416)">
<title>godep</title>
<polygon fill="white" stroke="transparent" points="-4,4 -4,-416 3756.5,-416 3756.5,4 -4,4"/>
<!-- b_sql.go -->
<g id="node1" class="node">
<title>b_sql.go</title>
<g id="a_node1"><a xlink:href="https://godoc.org/b_sql.go" xlink:title="b_sql.go" target="_blank">
<path fill="paleturquoise" stroke="paleturquoise" d="M1178,-412C1178,-412 1139,-412 1139,-412 1133,-412 1127,-406 1127,-400 1127,-400 1127,-388 1127,-388 1127,-382 1133,-376 1139,-376 1139,-376 1178,-376 1178,-376 1184,-376 1190,-382 1190,-388 1190,-388 1190,-400 1190,-400 1190,-406 1184,-412 1178,-412"/>
<text text-anchor="middle" x="1158.5" y="-390.3" font-family="Times,serif" font-size="14.00">b_sql.go</text>
</a>
</g>
</g>
<!-- fmt -->
<g id="node2" class="node">
<title>fmt</title>
<g id="a_node2"><a xlink:href="https://godoc.org/fmt" xlink:title="fmt" target="_blank">
<path fill="palegreen" stroke="palegreen" d="M243.5,-130C243.5,-130 213.5,-130 213.5,-130 207.5,-130 201.5,-124 201.5,-118 201.5,-118 201.5,-106 201.5,-106 201.5,-100 207.5,-94 213.5,-94 213.5,-94 243.5,-94 243.5,-94 249.5,-94 255.5,-100 255.5,-106 255.5,-106 255.5,-118 255.5,-118 255.5,-124 249.5,-130 243.5,-130"/>
<text text-anchor="middle" x="228.5" y="-108.3" font-family="Times,serif" font-size="14.00">fmt</text>
</a>
</g>
</g>
<!-- b_sql.go&#45;&gt;fmt -->
<g id="edge1" class="edge">
<title>b_sql.go&#45;&gt;fmt</title>
<path fill="none" stroke="black" d="M1126.75,-400C962.02,-400 212.3,-400 212.3,-400 212.3,-400 212.3,-135.02 212.3,-135.02"/>
<polygon fill="black" stroke="black" points="214.05,-135.02 212.3,-130.02 210.55,-135.02 214.05,-135.02"/>
</g>
<!-- github.com/davecgh/go&#45;spew/spew -->
<g id="node3" class="node">
<title>github.com/davecgh/go&#45;spew/spew</title>
<g id="a_node3"><a xlink:href="https://godoc.org/github.com/davecgh/go-spew/spew" xlink:title="github.com/davecgh/go&#45;spew/spew" target="_blank">
<path fill="paleturquoise" stroke="paleturquoise" d="M479,-224C479,-224 294,-224 294,-224 288,-224 282,-218 282,-212 282,-212 282,-200 282,-200 282,-194 288,-188 294,-188 294,-188 479,-188 479,-188 485,-188 491,-194 491,-200 491,-200 491,-212 491,-212 491,-218 485,-224 479,-224"/>
<text text-anchor="middle" x="386.5" y="-202.3" font-family="Times,serif" font-size="14.00">github.com/davecgh/go&#45;spew/spew</text>
</a>
</g>
</g>
<!-- b_sql.go&#45;&gt;github.com/davecgh/go&#45;spew/spew -->
<g id="edge2" class="edge">
<title>b_sql.go&#45;&gt;github.com/davecgh/go&#45;spew/spew</title>
<path fill="none" stroke="black" d="M1126.8,-388C981.53,-388 386.5,-388 386.5,-388 386.5,-388 386.5,-229.12 386.5,-229.12"/>
<polygon fill="black" stroke="black" points="388.25,-229.12 386.5,-224.12 384.75,-229.12 388.25,-229.12"/>
</g>
<!-- github.com/jinzhu/gorm -->
<g id="node4" class="node">
<title>github.com/jinzhu/gorm</title>
<g id="a_node4"><a xlink:href="https://godoc.org/github.com/jinzhu/gorm" xlink:title="github.com/jinzhu/gorm" target="_blank">
<path fill="paleturquoise" stroke="paleturquoise" d="M1221,-224C1221,-224 1096,-224 1096,-224 1090,-224 1084,-218 1084,-212 1084,-212 1084,-200 1084,-200 1084,-194 1090,-188 1096,-188 1096,-188 1221,-188 1221,-188 1227,-188 1233,-194 1233,-200 1233,-200 1233,-212 1233,-212 1233,-218 1227,-224 1221,-224"/>
<text text-anchor="middle" x="1158.5" y="-202.3" font-family="Times,serif" font-size="14.00">github.com/jinzhu/gorm</text>
</a>
</g>
</g>
<!-- b_sql.go&#45;&gt;github.com/jinzhu/gorm -->
<g id="edge3" class="edge">
<title>b_sql.go&#45;&gt;github.com/jinzhu/gorm</title>
<path fill="none" stroke="black" d="M1148,-375.97C1148,-375.97 1148,-229.25 1148,-229.25"/>
<polygon fill="black" stroke="black" points="1149.75,-229.25 1148,-224.25 1146.25,-229.25 1149.75,-229.25"/>
</g>
<!-- github.com/jinzhu/gorm/dialects/mysql -->
<g id="node5" class="node">
<title>github.com/jinzhu/gorm/dialects/mysql</title>
<g id="a_node5"><a xlink:href="https://godoc.org/github.com/jinzhu/gorm/dialects/mysql" xlink:title="github.com/jinzhu/gorm/dialects/mysql" target="_blank">
<path fill="paleturquoise" stroke="paleturquoise" d="M2181.5,-318C2181.5,-318 1973.5,-318 1973.5,-318 1967.5,-318 1961.5,-312 1961.5,-306 1961.5,-306 1961.5,-294 1961.5,-294 1961.5,-288 1967.5,-282 1973.5,-282 1973.5,-282 2181.5,-282 2181.5,-282 2187.5,-282 2193.5,-288 2193.5,-294 2193.5,-294 2193.5,-306 2193.5,-306 2193.5,-312 2187.5,-318 2181.5,-318"/>
<text text-anchor="middle" x="2077.5" y="-296.3" font-family="Times,serif" font-size="14.00">github.com/jinzhu/gorm/dialects/mysql</text>
</a>
</g>
</g>
<!-- b_sql.go&#45;&gt;github.com/jinzhu/gorm/dialects/mysql -->
<g id="edge4" class="edge">
<title>b_sql.go&#45;&gt;github.com/jinzhu/gorm/dialects/mysql</title>
<path fill="none" stroke="black" d="M1169,-375.88C1169,-348.56 1169,-300 1169,-300 1169,-300 1956.05,-300 1956.05,-300"/>
<polygon fill="black" stroke="black" points="1956.05,-301.75 1961.05,-300 1956.05,-298.25 1956.05,-301.75"/>
</g>
<!-- time -->
<g id="node6" class="node">
<title>time</title>
<g id="a_node6"><a xlink:href="https://godoc.org/time" xlink:title="time" target="_blank">
<path fill="palegreen" stroke="palegreen" d="M2263.5,-130C2263.5,-130 2233.5,-130 2233.5,-130 2227.5,-130 2221.5,-124 2221.5,-118 2221.5,-118 2221.5,-106 2221.5,-106 2221.5,-100 2227.5,-94 2233.5,-94 2233.5,-94 2263.5,-94 2263.5,-94 2269.5,-94 2275.5,-100 2275.5,-106 2275.5,-106 2275.5,-118 2275.5,-118 2275.5,-124 2269.5,-130 2263.5,-130"/>
<text text-anchor="middle" x="2248.5" y="-108.3" font-family="Times,serif" font-size="14.00">time</text>
</a>
</g>
</g>
<!-- b_sql.go&#45;&gt;time -->
<g id="edge5" class="edge">
<title>b_sql.go&#45;&gt;time</title>
<path fill="none" stroke="black" d="M1190.29,-394C1213.65,-394 1241.33,-394 1241.33,-394 1241.33,-394 1241.33,-179 1241.33,-179 1241.33,-179 2248.5,-179 2248.5,-179 2248.5,-179 2248.5,-135.31 2248.5,-135.31"/>
<polygon fill="black" stroke="black" points="2250.25,-135.31 2248.5,-130.31 2246.75,-135.31 2250.25,-135.31"/>
</g>
<!-- github.com/davecgh/go&#45;spew/spew&#45;&gt;fmt -->
<g id="edge8" class="edge">
<title>github.com/davecgh/go&#45;spew/spew&#45;&gt;fmt</title>
<path fill="none" stroke="black" d="M281.63,-197C249.81,-197 223.1,-197 223.1,-197 223.1,-197 223.1,-135.03 223.1,-135.03"/>
<polygon fill="black" stroke="black" points="224.85,-135.03 223.1,-130.03 221.35,-135.03 224.85,-135.03"/>
</g>
<!-- bytes -->
<g id="node7" class="node">
<title>bytes</title>
<g id="a_node7"><a xlink:href="https://godoc.org/bytes" xlink:title="bytes" target="_blank">
<path fill="palegreen" stroke="palegreen" d="M1216.5,-130C1216.5,-130 1186.5,-130 1186.5,-130 1180.5,-130 1174.5,-124 1174.5,-118 1174.5,-118 1174.5,-106 1174.5,-106 1174.5,-100 1180.5,-94 1186.5,-94 1186.5,-94 1216.5,-94 1216.5,-94 1222.5,-94 1228.5,-100 1228.5,-106 1228.5,-106 1228.5,-118 1228.5,-118 1228.5,-124 1222.5,-130 1216.5,-130"/>
<text text-anchor="middle" x="1201.5" y="-108.3" font-family="Times,serif" font-size="14.00">bytes</text>
</a>
</g>
</g>
<!-- github.com/davecgh/go&#45;spew/spew&#45;&gt;bytes -->
<g id="edge6" class="edge">
<title>github.com/davecgh/go&#45;spew/spew&#45;&gt;bytes</title>
<path fill="none" stroke="black" d="M474.8,-187.78C474.8,-167.63 474.8,-138 474.8,-138 474.8,-138 1185.3,-138 1185.3,-138 1185.3,-138 1185.3,-135.06 1185.3,-135.06"/>
<polygon fill="black" stroke="black" points="1187.05,-135.06 1185.3,-130.06 1183.55,-135.06 1187.05,-135.06"/>
</g>
<!-- encoding/hex -->
<g id="node18" class="node">
<title>encoding/hex</title>
<g id="a_node18"><a xlink:href="https://godoc.org/encoding/hex" xlink:title="encoding/hex" target="_blank">
<path fill="palegreen" stroke="palegreen" d="M77,-130C77,-130 12,-130 12,-130 6,-130 0,-124 0,-118 0,-118 0,-106 0,-106 0,-100 6,-94 12,-94 12,-94 77,-94 77,-94 83,-94 89,-100 89,-106 89,-106 89,-118 89,-118 89,-124 83,-130 77,-130"/>
<text text-anchor="middle" x="44.5" y="-108.3" font-family="Times,serif" font-size="14.00">encoding/hex</text>
</a>
</g>
</g>
<!-- github.com/davecgh/go&#45;spew/spew&#45;&gt;encoding/hex -->
<g id="edge7" class="edge">
<title>github.com/davecgh/go&#45;spew/spew&#45;&gt;encoding/hex</title>
<path fill="none" stroke="black" d="M281.56,-215C181.03,-215 44.5,-215 44.5,-215 44.5,-215 44.5,-135.41 44.5,-135.41"/>
<polygon fill="black" stroke="black" points="46.25,-135.41 44.5,-130.41 42.75,-135.41 46.25,-135.41"/>
</g>
<!-- io -->
<g id="node22" class="node">
<title>io</title>
<g id="a_node22"><a xlink:href="https://godoc.org/io" xlink:title="io" target="_blank">
<path fill="palegreen" stroke="palegreen" d="M1559.5,-130C1559.5,-130 1529.5,-130 1529.5,-130 1523.5,-130 1517.5,-124 1517.5,-118 1517.5,-118 1517.5,-106 1517.5,-106 1517.5,-100 1523.5,-94 1529.5,-94 1529.5,-94 1559.5,-94 1559.5,-94 1565.5,-94 1571.5,-100 1571.5,-106 1571.5,-106 1571.5,-118 1571.5,-118 1571.5,-124 1565.5,-130 1559.5,-130"/>
<text text-anchor="middle" x="1544.5" y="-108.3" font-family="Times,serif" font-size="14.00">io</text>
</a>
</g>
</g>
<!-- github.com/davecgh/go&#45;spew/spew&#45;&gt;io -->
<g id="edge9" class="edge">
<title>github.com/davecgh/go&#45;spew/spew&#45;&gt;io</title>
<path fill="none" stroke="black" d="M482.9,-187.83C482.9,-168.91 482.9,-142 482.9,-142 482.9,-142 1535.5,-142 1535.5,-142 1535.5,-142 1535.5,-135.14 1535.5,-135.14"/>
<polygon fill="black" stroke="black" points="1537.25,-135.14 1535.5,-130.14 1533.75,-135.14 1537.25,-135.14"/>
</g>
<!-- os -->
<g id="node23" class="node">
<title>os</title>
<g id="a_node23"><a xlink:href="https://godoc.org/os" xlink:title="os" target="_blank">
<path fill="palegreen" stroke="palegreen" d="M326.5,-130C326.5,-130 296.5,-130 296.5,-130 290.5,-130 284.5,-124 284.5,-118 284.5,-118 284.5,-106 284.5,-106 284.5,-100 290.5,-94 296.5,-94 296.5,-94 326.5,-94 326.5,-94 332.5,-94 338.5,-100 338.5,-106 338.5,-106 338.5,-118 338.5,-118 338.5,-124 332.5,-130 326.5,-130"/>
<text text-anchor="middle" x="311.5" y="-108.3" font-family="Times,serif" font-size="14.00">os</text>
</a>
</g>
</g>
<!-- github.com/davecgh/go&#45;spew/spew&#45;&gt;os -->
<g id="edge10" class="edge">
<title>github.com/davecgh/go&#45;spew/spew&#45;&gt;os</title>
<path fill="none" stroke="black" d="M298,-187.88C298,-187.88 298,-135.07 298,-135.07"/>
<polygon fill="black" stroke="black" points="299.75,-135.07 298,-130.07 296.25,-135.07 299.75,-135.07"/>
</g>
<!-- reflect -->
<g id="node24" class="node">
<title>reflect</title>
<g id="a_node24"><a xlink:href="https://godoc.org/reflect" xlink:title="reflect" target="_blank">
<path fill="palegreen" stroke="palegreen" d="M409.5,-130C409.5,-130 379.5,-130 379.5,-130 373.5,-130 367.5,-124 367.5,-118 367.5,-118 367.5,-106 367.5,-106 367.5,-100 373.5,-94 379.5,-94 379.5,-94 409.5,-94 409.5,-94 415.5,-94 421.5,-100 421.5,-106 421.5,-106 421.5,-118 421.5,-118 421.5,-124 415.5,-130 409.5,-130"/>
<text text-anchor="middle" x="394.5" y="-108.3" font-family="Times,serif" font-size="14.00">reflect</text>
</a>
</g>
</g>
<!-- github.com/davecgh/go&#45;spew/spew&#45;&gt;reflect -->
<g id="edge11" class="edge">
<title>github.com/davecgh/go&#45;spew/spew&#45;&gt;reflect</title>
<path fill="none" stroke="black" d="M381,-187.88C381,-187.88 381,-135.07 381,-135.07"/>
<polygon fill="black" stroke="black" points="382.75,-135.07 381,-130.07 379.25,-135.07 382.75,-135.07"/>
</g>
<!-- regexp -->
<g id="node25" class="node">
<title>regexp</title>
<g id="a_node25"><a xlink:href="https://godoc.org/regexp" xlink:title="regexp" target="_blank">
<path fill="palegreen" stroke="palegreen" d="M737.5,-36C737.5,-36 707.5,-36 707.5,-36 701.5,-36 695.5,-30 695.5,-24 695.5,-24 695.5,-12 695.5,-12 695.5,-6 701.5,0 707.5,0 707.5,0 737.5,0 737.5,0 743.5,0 749.5,-6 749.5,-12 749.5,-12 749.5,-24 749.5,-24 749.5,-30 743.5,-36 737.5,-36"/>
<text text-anchor="middle" x="722.5" y="-14.3" font-family="Times,serif" font-size="14.00">regexp</text>
</a>
</g>
</g>
<!-- github.com/davecgh/go&#45;spew/spew&#45;&gt;regexp -->
<g id="edge12" class="edge">
<title>github.com/davecgh/go&#45;spew/spew&#45;&gt;regexp</title>
<path fill="none" stroke="black" d="M491.31,-204C586.96,-204 713.5,-204 713.5,-204 713.5,-204 713.5,-41.17 713.5,-41.17"/>
<polygon fill="black" stroke="black" points="715.25,-41.17 713.5,-36.17 711.75,-41.17 715.25,-41.17"/>
</g>
<!-- sort -->
<g id="node26" class="node">
<title>sort</title>
<g id="a_node26"><a xlink:href="https://godoc.org/sort" xlink:title="sort" target="_blank">
<path fill="palegreen" stroke="palegreen" d="M492.5,-130C492.5,-130 462.5,-130 462.5,-130 456.5,-130 450.5,-124 450.5,-118 450.5,-118 450.5,-106 450.5,-106 450.5,-100 456.5,-94 462.5,-94 462.5,-94 492.5,-94 492.5,-94 498.5,-94 504.5,-100 504.5,-106 504.5,-106 504.5,-118 504.5,-118 504.5,-124 498.5,-130 492.5,-130"/>
<text text-anchor="middle" x="477.5" y="-108.3" font-family="Times,serif" font-size="14.00">sort</text>
</a>
</g>
</g>
<!-- github.com/davecgh/go&#45;spew/spew&#45;&gt;sort -->
<g id="edge13" class="edge">
<title>github.com/davecgh/go&#45;spew/spew&#45;&gt;sort</title>
<path fill="none" stroke="black" d="M458.6,-187.88C458.6,-187.88 458.6,-135.07 458.6,-135.07"/>
<polygon fill="black" stroke="black" points="460.35,-135.07 458.6,-130.07 456.85,-135.07 460.35,-135.07"/>
</g>
<!-- strconv -->
<g id="node27" class="node">
<title>strconv</title>
<g id="a_node27"><a xlink:href="https://godoc.org/strconv" xlink:title="strconv" target="_blank">
<path fill="palegreen" stroke="palegreen" d="M577.5,-130C577.5,-130 545.5,-130 545.5,-130 539.5,-130 533.5,-124 533.5,-118 533.5,-118 533.5,-106 533.5,-106 533.5,-100 539.5,-94 545.5,-94 545.5,-94 577.5,-94 577.5,-94 583.5,-94 589.5,-100 589.5,-106 589.5,-106 589.5,-118 589.5,-118 589.5,-124 583.5,-130 577.5,-130"/>
<text text-anchor="middle" x="561.5" y="-108.3" font-family="Times,serif" font-size="14.00">strconv</text>
</a>
</g>
</g>
<!-- github.com/davecgh/go&#45;spew/spew&#45;&gt;strconv -->
<g id="edge14" class="edge">
<title>github.com/davecgh/go&#45;spew/spew&#45;&gt;strconv</title>
<path fill="none" stroke="black" d="M491.19,-194C521.94,-194 547.5,-194 547.5,-194 547.5,-194 547.5,-135.2 547.5,-135.2"/>
<polygon fill="black" stroke="black" points="549.25,-135.2 547.5,-130.2 545.75,-135.2 549.25,-135.2"/>
</g>
<!-- strings -->
<g id="node28" class="node">
<title>strings</title>
<g id="a_node28"><a xlink:href="https://godoc.org/strings" xlink:title="strings" target="_blank">
<path fill="palegreen" stroke="palegreen" d="M1423.5,-36C1423.5,-36 1393.5,-36 1393.5,-36 1387.5,-36 1381.5,-30 1381.5,-24 1381.5,-24 1381.5,-12 1381.5,-12 1381.5,-6 1387.5,0 1393.5,0 1393.5,0 1423.5,0 1423.5,0 1429.5,0 1435.5,-6 1435.5,-12 1435.5,-12 1435.5,-24 1435.5,-24 1435.5,-30 1429.5,-36 1423.5,-36"/>
<text text-anchor="middle" x="1408.5" y="-14.3" font-family="Times,serif" font-size="14.00">strings</text>
</a>
</g>
</g>
<!-- github.com/davecgh/go&#45;spew/spew&#45;&gt;strings -->
<g id="edge15" class="edge">
<title>github.com/davecgh/go&#45;spew/spew&#45;&gt;strings</title>
<path fill="none" stroke="black" d="M491.04,-217C601,-217 758.25,-217 758.25,-217 758.25,-217 758.25,-18 758.25,-18 758.25,-18 1376.39,-18 1376.39,-18"/>
<polygon fill="black" stroke="black" points="1376.39,-19.75 1381.39,-18 1376.39,-16.25 1376.39,-19.75"/>
</g>
<!-- unsafe -->
<g id="node29" class="node">
<title>unsafe</title>
<g id="a_node29"><a xlink:href="https://godoc.org/unsafe" xlink:title="unsafe" target="_blank">
<path fill="palegreen" stroke="palegreen" d="M160.5,-130C160.5,-130 130.5,-130 130.5,-130 124.5,-130 118.5,-124 118.5,-118 118.5,-118 118.5,-106 118.5,-106 118.5,-100 124.5,-94 130.5,-94 130.5,-94 160.5,-94 160.5,-94 166.5,-94 172.5,-100 172.5,-106 172.5,-106 172.5,-118 172.5,-118 172.5,-124 166.5,-130 160.5,-130"/>
<text text-anchor="middle" x="145.5" y="-108.3" font-family="Times,serif" font-size="14.00">unsafe</text>
</a>
</g>
</g>
<!-- github.com/davecgh/go&#45;spew/spew&#45;&gt;unsafe -->
<g id="edge16" class="edge">
<title>github.com/davecgh/go&#45;spew/spew&#45;&gt;unsafe</title>
<path fill="none" stroke="black" d="M281.85,-206C216.81,-206 145.5,-206 145.5,-206 145.5,-206 145.5,-135.12 145.5,-135.12"/>
<polygon fill="black" stroke="black" points="147.25,-135.12 145.5,-130.12 143.75,-135.12 147.25,-135.12"/>
</g>
<!-- github.com/jinzhu/gorm&#45;&gt;fmt -->
<g id="edge53" class="edge">
<title>github.com/jinzhu/gorm&#45;&gt;fmt</title>
<path fill="none" stroke="black" d="M1097.8,-187.68C1097.8,-179.21 1097.8,-171 1097.8,-171 1097.8,-171 233.9,-171 233.9,-171 233.9,-171 233.9,-135.02 233.9,-135.02"/>
<polygon fill="black" stroke="black" points="235.65,-135.02 233.9,-130.02 232.15,-135.02 235.65,-135.02"/>
</g>
<!-- github.com/jinzhu/gorm&#45;&gt;time -->
<g id="edge65" class="edge">
<title>github.com/jinzhu/gorm&#45;&gt;time</title>
<path fill="none" stroke="black" d="M1206.9,-187.97C1206.9,-181.15 1206.9,-175 1206.9,-175 1206.9,-175 2235,-175 2235,-175 2235,-175 2235,-135.22 2235,-135.22"/>
<polygon fill="black" stroke="black" points="2236.75,-135.22 2235,-130.22 2233.25,-135.22 2236.75,-135.22"/>
</g>
<!-- github.com/jinzhu/gorm&#45;&gt;bytes -->
<g id="edge46" class="edge">
<title>github.com/jinzhu/gorm&#45;&gt;bytes</title>
<path fill="none" stroke="black" d="M1196.1,-187.88C1196.1,-187.88 1196.1,-135.07 1196.1,-135.07"/>
<polygon fill="black" stroke="black" points="1197.85,-135.07 1196.1,-130.07 1194.35,-135.07 1197.85,-135.07"/>
</g>
<!-- context -->
<g id="node8" class="node">
<title>context</title>
<g id="a_node8"><a xlink:href="https://godoc.org/context" xlink:title="context" target="_blank">
<path fill="palegreen" stroke="palegreen" d="M1810.5,-130C1810.5,-130 1778.5,-130 1778.5,-130 1772.5,-130 1766.5,-124 1766.5,-118 1766.5,-118 1766.5,-106 1766.5,-106 1766.5,-100 1772.5,-94 1778.5,-94 1778.5,-94 1810.5,-94 1810.5,-94 1816.5,-94 1822.5,-100 1822.5,-106 1822.5,-106 1822.5,-118 1822.5,-118 1822.5,-124 1816.5,-130 1810.5,-130"/>
<text text-anchor="middle" x="1794.5" y="-108.3" font-family="Times,serif" font-size="14.00">context</text>
</a>
</g>
</g>
<!-- github.com/jinzhu/gorm&#45;&gt;context -->
<g id="edge47" class="edge">
<title>github.com/jinzhu/gorm&#45;&gt;context</title>
<path fill="none" stroke="black" d="M1233.16,-210C1399.33,-210 1785.17,-210 1785.17,-210 1785.17,-210 1785.17,-135.43 1785.17,-135.43"/>
<polygon fill="black" stroke="black" points="1786.92,-135.43 1785.17,-130.43 1783.42,-135.43 1786.92,-135.43"/>
</g>
<!-- crypto/sha1 -->
<g id="node11" class="node">
<title>crypto/sha1</title>
<g id="a_node11"><a xlink:href="https://godoc.org/crypto/sha1" xlink:title="crypto/sha1" target="_blank">
<path fill="palegreen" stroke="palegreen" d="M1919.5,-130C1919.5,-130 1863.5,-130 1863.5,-130 1857.5,-130 1851.5,-124 1851.5,-118 1851.5,-118 1851.5,-106 1851.5,-106 1851.5,-100 1857.5,-94 1863.5,-94 1863.5,-94 1919.5,-94 1919.5,-94 1925.5,-94 1931.5,-100 1931.5,-106 1931.5,-106 1931.5,-118 1931.5,-118 1931.5,-124 1925.5,-130 1919.5,-130"/>
<text text-anchor="middle" x="1891.5" y="-108.3" font-family="Times,serif" font-size="14.00">crypto/sha1</text>
</a>
</g>
</g>
<!-- github.com/jinzhu/gorm&#45;&gt;crypto/sha1 -->
<g id="edge48" class="edge">
<title>github.com/jinzhu/gorm&#45;&gt;crypto/sha1</title>
<path fill="none" stroke="black" d="M1233.14,-212C1417.24,-212 1878.17,-212 1878.17,-212 1878.17,-212 1878.17,-135.34 1878.17,-135.34"/>
<polygon fill="black" stroke="black" points="1879.92,-135.34 1878.17,-130.34 1876.42,-135.34 1879.92,-135.34"/>
</g>
<!-- database/sql -->
<g id="node15" class="node">
<title>database/sql</title>
<g id="a_node15"><a xlink:href="https://godoc.org/database/sql" xlink:title="database/sql" target="_blank">
<path fill="palegreen" stroke="palegreen" d="M2032,-130C2032,-130 1973,-130 1973,-130 1967,-130 1961,-124 1961,-118 1961,-118 1961,-106 1961,-106 1961,-100 1967,-94 1973,-94 1973,-94 2032,-94 2032,-94 2038,-94 2044,-100 2044,-106 2044,-106 2044,-118 2044,-118 2044,-124 2038,-130 2032,-130"/>
<text text-anchor="middle" x="2002.5" y="-108.3" font-family="Times,serif" font-size="14.00">database/sql</text>
</a>
</g>
</g>
<!-- github.com/jinzhu/gorm&#45;&gt;database/sql -->
<g id="edge49" class="edge">
<title>github.com/jinzhu/gorm&#45;&gt;database/sql</title>
<path fill="none" stroke="black" d="M1233.3,-215C1437.44,-215 1989,-215 1989,-215 1989,-215 1989,-135.41 1989,-135.41"/>
<polygon fill="black" stroke="black" points="1990.75,-135.41 1989,-130.41 1987.25,-135.41 1990.75,-135.41"/>
</g>
<!-- database/sql/driver -->
<g id="node16" class="node">
<title>database/sql/driver</title>
<g id="a_node16"><a xlink:href="https://godoc.org/database/sql/driver" xlink:title="database/sql/driver" target="_blank">
<path fill="palegreen" stroke="palegreen" d="M2180,-130C2180,-130 2085,-130 2085,-130 2079,-130 2073,-124 2073,-118 2073,-118 2073,-106 2073,-106 2073,-100 2079,-94 2085,-94 2085,-94 2180,-94 2180,-94 2186,-94 2192,-100 2192,-106 2192,-106 2192,-118 2192,-118 2192,-124 2186,-130 2180,-130"/>
<text text-anchor="middle" x="2132.5" y="-108.3" font-family="Times,serif" font-size="14.00">database/sql/driver</text>
</a>
</g>
</g>
<!-- github.com/jinzhu/gorm&#45;&gt;database/sql/driver -->
<g id="edge50" class="edge">
<title>github.com/jinzhu/gorm&#45;&gt;database/sql/driver</title>
<path fill="none" stroke="black" d="M1233.37,-217C1458.31,-217 2112.67,-217 2112.67,-217 2112.67,-217 2112.67,-135.29 2112.67,-135.29"/>
<polygon fill="black" stroke="black" points="2114.42,-135.29 2112.67,-130.29 2110.92,-135.29 2114.42,-135.29"/>
</g>
<!-- encoding/json -->
<g id="node19" class="node">
<title>encoding/json</title>
<g id="a_node19"><a xlink:href="https://godoc.org/encoding/json" xlink:title="encoding/json" target="_blank">
<path fill="palegreen" stroke="palegreen" d="M961.5,-130C961.5,-130 893.5,-130 893.5,-130 887.5,-130 881.5,-124 881.5,-118 881.5,-118 881.5,-106 881.5,-106 881.5,-100 887.5,-94 893.5,-94 893.5,-94 961.5,-94 961.5,-94 967.5,-94 973.5,-100 973.5,-106 973.5,-106 973.5,-118 973.5,-118 973.5,-124 967.5,-130 961.5,-130"/>
<text text-anchor="middle" x="927.5" y="-108.3" font-family="Times,serif" font-size="14.00">encoding/json</text>
</a>
</g>
</g>
<!-- github.com/jinzhu/gorm&#45;&gt;encoding/json -->
<g id="edge51" class="edge">
<title>github.com/jinzhu/gorm&#45;&gt;encoding/json</title>
<path fill="none" stroke="black" d="M1083.82,-197C1016.33,-197 927.5,-197 927.5,-197 927.5,-197 927.5,-135.03 927.5,-135.03"/>
<polygon fill="black" stroke="black" points="929.25,-135.03 927.5,-130.03 925.75,-135.03 929.25,-135.03"/>
</g>
<!-- errors -->
<g id="node21" class="node">
<title>errors</title>
<g id="a_node21"><a xlink:href="https://godoc.org/errors" xlink:title="errors" target="_blank">
<path fill="palegreen" stroke="palegreen" d="M2346.5,-130C2346.5,-130 2316.5,-130 2316.5,-130 2310.5,-130 2304.5,-124 2304.5,-118 2304.5,-118 2304.5,-106 2304.5,-106 2304.5,-100 2310.5,-94 2316.5,-94 2316.5,-94 2346.5,-94 2346.5,-94 2352.5,-94 2358.5,-100 2358.5,-106 2358.5,-106 2358.5,-118 2358.5,-118 2358.5,-124 2352.5,-130 2346.5,-130"/>
<text text-anchor="middle" x="2331.5" y="-108.3" font-family="Times,serif" font-size="14.00">errors</text>
</a>
</g>
</g>
<!-- github.com/jinzhu/gorm&#45;&gt;errors -->
<g id="edge52" class="edge">
<title>github.com/jinzhu/gorm&#45;&gt;errors</title>
<path fill="none" stroke="black" d="M1217.7,-187.88C1217.7,-185.03 1217.7,-183 1217.7,-183 1217.7,-183 2322.5,-183 2322.5,-183 2322.5,-183 2322.5,-135.28 2322.5,-135.28"/>
<polygon fill="black" stroke="black" points="2324.25,-135.28 2322.5,-130.28 2320.75,-135.28 2324.25,-135.28"/>
</g>
<!-- github.com/jinzhu/gorm&#45;&gt;os -->
<g id="edge57" class="edge">
<title>github.com/jinzhu/gorm&#45;&gt;os</title>
<path fill="none" stroke="black" d="M1109.6,-187.51C1109.6,-175.86 1109.6,-163 1109.6,-163 1109.6,-163 311.5,-163 311.5,-163 311.5,-163 311.5,-135.12 311.5,-135.12"/>
<polygon fill="black" stroke="black" points="313.25,-135.12 311.5,-130.12 309.75,-135.12 313.25,-135.12"/>
</g>
<!-- github.com/jinzhu/gorm&#45;&gt;reflect -->
<g id="edge58" class="edge">
<title>github.com/jinzhu/gorm&#45;&gt;reflect</title>
<path fill="none" stroke="black" d="M1121.4,-187.81C1121.4,-172.82 1121.4,-154 1121.4,-154 1121.4,-154 394.5,-154 394.5,-154 394.5,-154 394.5,-135.06 394.5,-135.06"/>
<polygon fill="black" stroke="black" points="396.25,-135.06 394.5,-130.06 392.75,-135.06 396.25,-135.06"/>
</g>
<!-- github.com/jinzhu/gorm&#45;&gt;regexp -->
<g id="edge59" class="edge">
<title>github.com/jinzhu/gorm&#45;&gt;regexp</title>
<path fill="none" stroke="black" d="M1083.63,-207C961.17,-207 731.5,-207 731.5,-207 731.5,-207 731.5,-41.12 731.5,-41.12"/>
<polygon fill="black" stroke="black" points="733.25,-41.12 731.5,-36.12 729.75,-41.12 733.25,-41.12"/>
</g>
<!-- github.com/jinzhu/gorm&#45;&gt;sort -->
<g id="edge61" class="edge">
<title>github.com/jinzhu/gorm&#45;&gt;sort</title>
<path fill="none" stroke="black" d="M1083.99,-220C911.19,-220 497.75,-220 497.75,-220 497.75,-220 497.75,-135.32 497.75,-135.32"/>
<polygon fill="black" stroke="black" points="499.5,-135.32 497.75,-130.32 496,-135.32 499.5,-135.32"/>
</g>
<!-- github.com/jinzhu/gorm&#45;&gt;strconv -->
<g id="edge62" class="edge">
<title>github.com/jinzhu/gorm&#45;&gt;strconv</title>
<path fill="none" stroke="black" d="M1083.8,-214C923.61,-214 561.5,-214 561.5,-214 561.5,-214 561.5,-135.24 561.5,-135.24"/>
<polygon fill="black" stroke="black" points="563.25,-135.24 561.5,-130.24 559.75,-135.24 563.25,-135.24"/>
</g>
<!-- github.com/jinzhu/gorm&#45;&gt;strings -->
<g id="edge63" class="edge">
<title>github.com/jinzhu/gorm&#45;&gt;strings</title>
<path fill="none" stroke="black" d="M1159.75,-187.85C1159.75,-142.34 1159.75,-27 1159.75,-27 1159.75,-27 1376.41,-27 1376.41,-27"/>
<polygon fill="black" stroke="black" points="1376.41,-28.75 1381.41,-27 1376.41,-25.25 1376.41,-28.75"/>
</g>
<!-- log -->
<g id="node31" class="node">
<title>log</title>
<g id="a_node31"><a xlink:href="https://godoc.org/log" xlink:title="log" target="_blank">
<path fill="palegreen" stroke="palegreen" d="M1642.5,-130C1642.5,-130 1612.5,-130 1612.5,-130 1606.5,-130 1600.5,-124 1600.5,-118 1600.5,-118 1600.5,-106 1600.5,-106 1600.5,-100 1606.5,-94 1612.5,-94 1612.5,-94 1642.5,-94 1642.5,-94 1648.5,-94 1654.5,-100 1654.5,-106 1654.5,-106 1654.5,-118 1654.5,-118 1654.5,-124 1648.5,-130 1642.5,-130"/>
<text text-anchor="middle" x="1627.5" y="-108.3" font-family="Times,serif" font-size="14.00">log</text>
</a>
</g>
</g>
<!-- github.com/jinzhu/gorm&#45;&gt;log -->
<g id="edge56" class="edge">
<title>github.com/jinzhu/gorm&#45;&gt;log</title>
<path fill="none" stroke="black" d="M1233.17,-206C1363.44,-206 1618.5,-206 1618.5,-206 1618.5,-206 1618.5,-135.12 1618.5,-135.12"/>
<polygon fill="black" stroke="black" points="1620.25,-135.12 1618.5,-130.12 1616.75,-135.12 1620.25,-135.12"/>
</g>
<!-- sync -->
<g id="node36" class="node">
<title>sync</title>
<g id="a_node36"><a xlink:href="https://godoc.org/sync" xlink:title="sync" target="_blank">
<path fill="palegreen" stroke="palegreen" d="M1725.5,-130C1725.5,-130 1695.5,-130 1695.5,-130 1689.5,-130 1683.5,-124 1683.5,-118 1683.5,-118 1683.5,-106 1683.5,-106 1683.5,-100 1689.5,-94 1695.5,-94 1695.5,-94 1725.5,-94 1725.5,-94 1731.5,-94 1737.5,-100 1737.5,-106 1737.5,-106 1737.5,-118 1737.5,-118 1737.5,-124 1731.5,-130 1725.5,-130"/>
<text text-anchor="middle" x="1710.5" y="-108.3" font-family="Times,serif" font-size="14.00">sync</text>
</a>
</g>
</g>
<!-- github.com/jinzhu/gorm&#45;&gt;sync -->
<g id="edge64" class="edge">
<title>github.com/jinzhu/gorm&#45;&gt;sync</title>
<path fill="none" stroke="black" d="M1233.15,-208C1381.98,-208 1701.5,-208 1701.5,-208 1701.5,-208 1701.5,-135.06 1701.5,-135.06"/>
<polygon fill="black" stroke="black" points="1703.25,-135.06 1701.5,-130.06 1699.75,-135.06 1703.25,-135.06"/>
</g>
<!-- github.com/jinzhu/inflection -->
<g id="node39" class="node">
<title>github.com/jinzhu/inflection</title>
<g id="a_node39"><a xlink:href="https://godoc.org/github.com/jinzhu/inflection" xlink:title="github.com/jinzhu/inflection" target="_blank">
<path fill="paleturquoise" stroke="paleturquoise" d="M1417,-130C1417,-130 1270,-130 1270,-130 1264,-130 1258,-124 1258,-118 1258,-118 1258,-106 1258,-106 1258,-100 1264,-94 1270,-94 1270,-94 1417,-94 1417,-94 1423,-94 1429,-100 1429,-106 1429,-106 1429,-118 1429,-118 1429,-124 1423,-130 1417,-130"/>
<text text-anchor="middle" x="1343.5" y="-108.3" font-family="Times,serif" font-size="14.00">github.com/jinzhu/inflection</text>
</a>
</g>
</g>
<!-- github.com/jinzhu/gorm&#45;&gt;github.com/jinzhu/inflection -->
<g id="edge54" class="edge">
<title>github.com/jinzhu/gorm&#45;&gt;github.com/jinzhu/inflection</title>
<path fill="none" stroke="black" d="M1233.21,-190C1284.56,-190 1343.5,-190 1343.5,-190 1343.5,-190 1343.5,-135.09 1343.5,-135.09"/>
<polygon fill="black" stroke="black" points="1345.25,-135.09 1343.5,-130.09 1341.75,-135.09 1345.25,-135.09"/>
</g>
<!-- go/ast -->
<g id="node40" class="node">
<title>go/ast</title>
<g id="a_node40"><a xlink:href="https://godoc.org/go/ast" xlink:title="go/ast" target="_blank">
<path fill="palegreen" stroke="palegreen" d="M1044.5,-130C1044.5,-130 1014.5,-130 1014.5,-130 1008.5,-130 1002.5,-124 1002.5,-118 1002.5,-118 1002.5,-106 1002.5,-106 1002.5,-100 1008.5,-94 1014.5,-94 1014.5,-94 1044.5,-94 1044.5,-94 1050.5,-94 1056.5,-100 1056.5,-106 1056.5,-106 1056.5,-118 1056.5,-118 1056.5,-124 1050.5,-130 1044.5,-130"/>
<text text-anchor="middle" x="1029.5" y="-108.3" font-family="Times,serif" font-size="14.00">go/ast</text>
</a>
</g>
</g>
<!-- github.com/jinzhu/gorm&#45;&gt;go/ast -->
<g id="edge55" class="edge">
<title>github.com/jinzhu/gorm&#45;&gt;go/ast</title>
<path fill="none" stroke="black" d="M1083.83,-191C1055.31,-191 1029.5,-191 1029.5,-191 1029.5,-191 1029.5,-135.32 1029.5,-135.32"/>
<polygon fill="black" stroke="black" points="1031.25,-135.32 1029.5,-130.32 1027.75,-135.32 1031.25,-135.32"/>
</g>
<!-- runtime -->
<g id="node41" class="node">
<title>runtime</title>
<g id="a_node41"><a xlink:href="https://godoc.org/runtime" xlink:title="runtime" target="_blank">
<path fill="palegreen" stroke="palegreen" d="M1133,-130C1133,-130 1098,-130 1098,-130 1092,-130 1086,-124 1086,-118 1086,-118 1086,-106 1086,-106 1086,-100 1092,-94 1098,-94 1098,-94 1133,-94 1133,-94 1139,-94 1145,-100 1145,-106 1145,-106 1145,-118 1145,-118 1145,-124 1139,-130 1133,-130"/>
<text text-anchor="middle" x="1115.5" y="-108.3" font-family="Times,serif" font-size="14.00">runtime</text>
</a>
</g>
</g>
<!-- github.com/jinzhu/gorm&#45;&gt;runtime -->
<g id="edge60" class="edge">
<title>github.com/jinzhu/gorm&#45;&gt;runtime</title>
<path fill="none" stroke="black" d="M1133.2,-187.88C1133.2,-187.88 1133.2,-135.07 1133.2,-135.07"/>
<polygon fill="black" stroke="black" points="1134.95,-135.07 1133.2,-130.07 1131.45,-135.07 1134.95,-135.07"/>
</g>
<!-- unicode -->
<g id="node42" class="node">
<title>unicode</title>
<g id="a_node42"><a xlink:href="https://godoc.org/unicode" xlink:title="unicode" target="_blank">
<path fill="palegreen" stroke="palegreen" d="M666,-130C666,-130 631,-130 631,-130 625,-130 619,-124 619,-118 619,-118 619,-106 619,-106 619,-100 625,-94 631,-94 631,-94 666,-94 666,-94 672,-94 678,-100 678,-106 678,-106 678,-118 678,-118 678,-124 672,-130 666,-130"/>
<text text-anchor="middle" x="648.5" y="-108.3" font-family="Times,serif" font-size="14.00">unicode</text>
</a>
</g>
</g>
<!-- github.com/jinzhu/gorm&#45;&gt;unicode -->
<g id="edge66" class="edge">
<title>github.com/jinzhu/gorm&#45;&gt;unicode</title>
<path fill="none" stroke="black" d="M1083.8,-210C942.14,-210 648.5,-210 648.5,-210 648.5,-210 648.5,-135.43 648.5,-135.43"/>
<polygon fill="black" stroke="black" points="650.25,-135.43 648.5,-130.43 646.75,-135.43 650.25,-135.43"/>
</g>
<!-- unicode/utf8 -->
<g id="node43" class="node">
<title>unicode/utf8</title>
<g id="a_node43"><a xlink:href="https://godoc.org/unicode/utf8" xlink:title="unicode/utf8" target="_blank">
<path fill="palegreen" stroke="palegreen" d="M840,-130C840,-130 779,-130 779,-130 773,-130 767,-124 767,-118 767,-118 767,-106 767,-106 767,-100 773,-94 779,-94 779,-94 840,-94 840,-94 846,-94 852,-100 852,-106 852,-106 852,-118 852,-118 852,-124 846,-130 840,-130"/>
<text text-anchor="middle" x="809.5" y="-108.3" font-family="Times,serif" font-size="14.00">unicode/utf8</text>
</a>
</g>
</g>
<!-- github.com/jinzhu/gorm&#45;&gt;unicode/utf8 -->
<g id="edge67" class="edge">
<title>github.com/jinzhu/gorm&#45;&gt;unicode/utf8</title>
<path fill="none" stroke="black" d="M1083.63,-201C981.08,-201 809.5,-201 809.5,-201 809.5,-201 809.5,-135.01 809.5,-135.01"/>
<polygon fill="black" stroke="black" points="811.25,-135.01 809.5,-130.01 807.75,-135.01 811.25,-135.01"/>
</g>
<!-- github.com/go&#45;sql&#45;driver/mysql -->
<g id="node30" class="node">
<title>github.com/go&#45;sql&#45;driver/mysql</title>
<g id="a_node30"><a xlink:href="https://godoc.org/github.com/go-sql-driver/mysql" xlink:title="github.com/go&#45;sql&#45;driver/mysql" target="_blank">
<path fill="paleturquoise" stroke="paleturquoise" d="M2373,-224C2373,-224 2206,-224 2206,-224 2200,-224 2194,-218 2194,-212 2194,-212 2194,-200 2194,-200 2194,-194 2200,-188 2206,-188 2206,-188 2373,-188 2373,-188 2379,-188 2385,-194 2385,-200 2385,-200 2385,-212 2385,-212 2385,-218 2379,-224 2373,-224"/>
<text text-anchor="middle" x="2289.5" y="-202.3" font-family="Times,serif" font-size="14.00">github.com/go&#45;sql&#45;driver/mysql</text>
</a>
</g>
</g>
<!-- github.com/jinzhu/gorm/dialects/mysql&#45;&gt;github.com/go&#45;sql&#45;driver/mysql -->
<g id="edge68" class="edge">
<title>github.com/jinzhu/gorm/dialects/mysql&#45;&gt;github.com/go&#45;sql&#45;driver/mysql</title>
<path fill="none" stroke="black" d="M2152.33,-281.68C2152.33,-258.34 2152.33,-221 2152.33,-221 2152.33,-221 2188.86,-221 2188.86,-221"/>
<polygon fill="black" stroke="black" points="2188.86,-222.75 2193.86,-221 2188.86,-219.25 2188.86,-222.75"/>
</g>
<!-- crypto/rand -->
<g id="node9" class="node">
<title>crypto/rand</title>
<g id="a_node9"><a xlink:href="https://godoc.org/crypto/rand" xlink:title="crypto/rand" target="_blank">
<path fill="palegreen" stroke="palegreen" d="M3054,-130C3054,-130 2999,-130 2999,-130 2993,-130 2987,-124 2987,-118 2987,-118 2987,-106 2987,-106 2987,-100 2993,-94 2999,-94 2999,-94 3054,-94 3054,-94 3060,-94 3066,-100 3066,-106 3066,-106 3066,-118 3066,-118 3066,-124 3060,-130 3054,-130"/>
<text text-anchor="middle" x="3026.5" y="-108.3" font-family="Times,serif" font-size="14.00">crypto/rand</text>
</a>
</g>
</g>
<!-- crypto/rsa -->
<g id="node10" class="node">
<title>crypto/rsa</title>
<g id="a_node10"><a xlink:href="https://godoc.org/crypto/rsa" xlink:title="crypto/rsa" target="_blank">
<path fill="palegreen" stroke="palegreen" d="M3154,-130C3154,-130 3107,-130 3107,-130 3101,-130 3095,-124 3095,-118 3095,-118 3095,-106 3095,-106 3095,-100 3101,-94 3107,-94 3107,-94 3154,-94 3154,-94 3160,-94 3166,-100 3166,-106 3166,-106 3166,-118 3166,-118 3166,-124 3160,-130 3154,-130"/>
<text text-anchor="middle" x="3130.5" y="-108.3" font-family="Times,serif" font-size="14.00">crypto/rsa</text>
</a>
</g>
</g>
<!-- crypto/sha256 -->
<g id="node12" class="node">
<title>crypto/sha256</title>
<g id="a_node12"><a xlink:href="https://godoc.org/crypto/sha256" xlink:title="crypto/sha256" target="_blank">
<path fill="palegreen" stroke="palegreen" d="M3276,-130C3276,-130 3207,-130 3207,-130 3201,-130 3195,-124 3195,-118 3195,-118 3195,-106 3195,-106 3195,-100 3201,-94 3207,-94 3207,-94 3276,-94 3276,-94 3282,-94 3288,-100 3288,-106 3288,-106 3288,-118 3288,-118 3288,-124 3282,-130 3276,-130"/>
<text text-anchor="middle" x="3241.5" y="-108.3" font-family="Times,serif" font-size="14.00">crypto/sha256</text>
</a>
</g>
</g>
<!-- crypto/tls -->
<g id="node13" class="node">
<title>crypto/tls</title>
<g id="a_node13"><a xlink:href="https://godoc.org/crypto/tls" xlink:title="crypto/tls" target="_blank">
<path fill="palegreen" stroke="palegreen" d="M3373.5,-130C3373.5,-130 3329.5,-130 3329.5,-130 3323.5,-130 3317.5,-124 3317.5,-118 3317.5,-118 3317.5,-106 3317.5,-106 3317.5,-100 3323.5,-94 3329.5,-94 3329.5,-94 3373.5,-94 3373.5,-94 3379.5,-94 3385.5,-100 3385.5,-106 3385.5,-106 3385.5,-118 3385.5,-118 3385.5,-124 3379.5,-130 3373.5,-130"/>
<text text-anchor="middle" x="3351.5" y="-108.3" font-family="Times,serif" font-size="14.00">crypto/tls</text>
</a>
</g>
</g>
<!-- crypto/x509 -->
<g id="node14" class="node">
<title>crypto/x509</title>
<g id="a_node14"><a xlink:href="https://godoc.org/crypto/x509" xlink:title="crypto/x509" target="_blank">
<path fill="palegreen" stroke="palegreen" d="M3484.5,-130C3484.5,-130 3426.5,-130 3426.5,-130 3420.5,-130 3414.5,-124 3414.5,-118 3414.5,-118 3414.5,-106 3414.5,-106 3414.5,-100 3420.5,-94 3426.5,-94 3426.5,-94 3484.5,-94 3484.5,-94 3490.5,-94 3496.5,-100 3496.5,-106 3496.5,-106 3496.5,-118 3496.5,-118 3496.5,-124 3490.5,-130 3484.5,-130"/>
<text text-anchor="middle" x="3455.5" y="-108.3" font-family="Times,serif" font-size="14.00">crypto/x509</text>
</a>
</g>
</g>
<!-- encoding/binary -->
<g id="node17" class="node">
<title>encoding/binary</title>
<g id="a_node17"><a xlink:href="https://godoc.org/encoding/binary" xlink:title="encoding/binary" target="_blank">
<path fill="palegreen" stroke="palegreen" d="M3617.5,-130C3617.5,-130 3537.5,-130 3537.5,-130 3531.5,-130 3525.5,-124 3525.5,-118 3525.5,-118 3525.5,-106 3525.5,-106 3525.5,-100 3531.5,-94 3537.5,-94 3537.5,-94 3617.5,-94 3617.5,-94 3623.5,-94 3629.5,-100 3629.5,-106 3629.5,-106 3629.5,-118 3629.5,-118 3629.5,-124 3623.5,-130 3617.5,-130"/>
<text text-anchor="middle" x="3577.5" y="-108.3" font-family="Times,serif" font-size="14.00">encoding/binary</text>
</a>
</g>
</g>
<!-- encoding/pem -->
<g id="node20" class="node">
<title>encoding/pem</title>
<g id="a_node20"><a xlink:href="https://godoc.org/encoding/pem" xlink:title="encoding/pem" target="_blank">
<path fill="palegreen" stroke="palegreen" d="M3740.5,-130C3740.5,-130 3670.5,-130 3670.5,-130 3664.5,-130 3658.5,-124 3658.5,-118 3658.5,-118 3658.5,-106 3658.5,-106 3658.5,-100 3664.5,-94 3670.5,-94 3670.5,-94 3740.5,-94 3740.5,-94 3746.5,-94 3752.5,-100 3752.5,-106 3752.5,-106 3752.5,-118 3752.5,-118 3752.5,-124 3746.5,-130 3740.5,-130"/>
<text text-anchor="middle" x="3705.5" y="-108.3" font-family="Times,serif" font-size="14.00">encoding/pem</text>
</a>
</g>
</g>
<!-- github.com/go&#45;sql&#45;driver/mysql&#45;&gt;fmt -->
<g id="edge30" class="edge">
<title>github.com/go&#45;sql&#45;driver/mysql&#45;&gt;fmt</title>
<path fill="none" stroke="black" d="M2197.44,-187.87C2197.44,-177.69 2197.44,-167 2197.44,-167 2197.44,-167 244.7,-167 244.7,-167 244.7,-167 244.7,-135.01 244.7,-135.01"/>
<polygon fill="black" stroke="black" points="246.45,-135.01 244.7,-130.01 242.95,-135.01 246.45,-135.01"/>
</g>
<!-- github.com/go&#45;sql&#45;driver/mysql&#45;&gt;time -->
<g id="edge45" class="edge">
<title>github.com/go&#45;sql&#45;driver/mysql&#45;&gt;time</title>
<path fill="none" stroke="black" d="M2262,-187.88C2262,-187.88 2262,-135.07 2262,-135.07"/>
<polygon fill="black" stroke="black" points="2263.75,-135.07 2262,-130.07 2260.25,-135.07 2263.75,-135.07"/>
</g>
<!-- github.com/go&#45;sql&#45;driver/mysql&#45;&gt;bytes -->
<g id="edge17" class="edge">
<title>github.com/go&#45;sql&#45;driver/mysql&#45;&gt;bytes</title>
<path fill="none" stroke="black" d="M2193.54,-219C1936.12,-219 1249.67,-219 1249.67,-219 1249.67,-219 1249.67,-112 1249.67,-112 1249.67,-112 1233.68,-112 1233.68,-112"/>
<polygon fill="black" stroke="black" points="1233.68,-110.25 1228.68,-112 1233.68,-113.75 1233.68,-110.25"/>
</g>
<!-- github.com/go&#45;sql&#45;driver/mysql&#45;&gt;context -->
<g id="edge18" class="edge">
<title>github.com/go&#45;sql&#45;driver/mysql&#45;&gt;context</title>
<path fill="none" stroke="black" d="M2193.84,-197C2052.35,-197 1803.83,-197 1803.83,-197 1803.83,-197 1803.83,-135.03 1803.83,-135.03"/>
<polygon fill="black" stroke="black" points="1805.58,-135.03 1803.83,-130.03 1802.08,-135.03 1805.58,-135.03"/>
</g>
<!-- github.com/go&#45;sql&#45;driver/mysql&#45;&gt;crypto/rand -->
<g id="edge19" class="edge">
<title>github.com/go&#45;sql&#45;driver/mysql&#45;&gt;crypto/rand</title>
<path fill="none" stroke="black" d="M2385.09,-204C2584.51,-204 3026.5,-204 3026.5,-204 3026.5,-204 3026.5,-135.18 3026.5,-135.18"/>
<polygon fill="black" stroke="black" points="3028.25,-135.18 3026.5,-130.18 3024.75,-135.18 3028.25,-135.18"/>
</g>
<!-- github.com/go&#45;sql&#45;driver/mysql&#45;&gt;crypto/rsa -->
<g id="edge20" class="edge">
<title>github.com/go&#45;sql&#45;driver/mysql&#45;&gt;crypto/rsa</title>
<path fill="none" stroke="black" d="M2385.15,-207C2605.58,-207 3130.5,-207 3130.5,-207 3130.5,-207 3130.5,-135.32 3130.5,-135.32"/>
<polygon fill="black" stroke="black" points="3132.25,-135.32 3130.5,-130.32 3128.75,-135.32 3132.25,-135.32"/>
</g>
<!-- github.com/go&#45;sql&#45;driver/mysql&#45;&gt;crypto/sha1 -->
<g id="edge21" class="edge">
<title>github.com/go&#45;sql&#45;driver/mysql&#45;&gt;crypto/sha1</title>
<path fill="none" stroke="black" d="M2193.92,-194C2080,-194 1904.83,-194 1904.83,-194 1904.83,-194 1904.83,-135.2 1904.83,-135.2"/>
<polygon fill="black" stroke="black" points="1906.58,-135.2 1904.83,-130.2 1903.08,-135.2 1906.58,-135.2"/>
</g>
<!-- github.com/go&#45;sql&#45;driver/mysql&#45;&gt;crypto/sha256 -->
<g id="edge22" class="edge">
<title>github.com/go&#45;sql&#45;driver/mysql&#45;&gt;crypto/sha256</title>
<path fill="none" stroke="black" d="M2385.14,-210C2626.55,-210 3241.5,-210 3241.5,-210 3241.5,-210 3241.5,-135.43 3241.5,-135.43"/>
<polygon fill="black" stroke="black" points="3243.25,-135.43 3241.5,-130.43 3239.75,-135.43 3243.25,-135.43"/>
</g>
<!-- github.com/go&#45;sql&#45;driver/mysql&#45;&gt;crypto/tls -->
<g id="edge23" class="edge">
<title>github.com/go&#45;sql&#45;driver/mysql&#45;&gt;crypto/tls</title>
<path fill="none" stroke="black" d="M2385.15,-212C2646.19,-212 3351.5,-212 3351.5,-212 3351.5,-212 3351.5,-135.34 3351.5,-135.34"/>
<polygon fill="black" stroke="black" points="3353.25,-135.34 3351.5,-130.34 3349.75,-135.34 3353.25,-135.34"/>
</g>
<!-- github.com/go&#45;sql&#45;driver/mysql&#45;&gt;crypto/x509 -->
<g id="edge24" class="edge">
<title>github.com/go&#45;sql&#45;driver/mysql&#45;&gt;crypto/x509</title>
<path fill="none" stroke="black" d="M2385.41,-215C2664.33,-215 3455.5,-215 3455.5,-215 3455.5,-215 3455.5,-135.41 3455.5,-135.41"/>
<polygon fill="black" stroke="black" points="3457.25,-135.41 3455.5,-130.41 3453.75,-135.41 3457.25,-135.41"/>
</g>
<!-- github.com/go&#45;sql&#45;driver/mysql&#45;&gt;database/sql -->
<g id="edge25" class="edge">
<title>github.com/go&#45;sql&#45;driver/mysql&#45;&gt;database/sql</title>
<path fill="none" stroke="black" d="M2193.63,-192C2114.97,-192 2016.5,-192 2016.5,-192 2016.5,-192 2016.5,-135.15 2016.5,-135.15"/>
<polygon fill="black" stroke="black" points="2018.25,-135.15 2016.5,-130.15 2014.75,-135.15 2018.25,-135.15"/>
</g>
<!-- github.com/go&#45;sql&#45;driver/mysql&#45;&gt;database/sql/driver -->
<g id="edge26" class="edge">
<title>github.com/go&#45;sql&#45;driver/mysql&#45;&gt;database/sql/driver</title>
<path fill="none" stroke="black" d="M2214.62,-187.88C2214.62,-160.56 2214.62,-112 2214.62,-112 2214.62,-112 2197.18,-112 2197.18,-112"/>
<polygon fill="black" stroke="black" points="2197.18,-110.25 2192.18,-112 2197.18,-113.75 2197.18,-110.25"/>
</g>
<!-- github.com/go&#45;sql&#45;driver/mysql&#45;&gt;encoding/binary -->
<g id="edge27" class="edge">
<title>github.com/go&#45;sql&#45;driver/mysql&#45;&gt;encoding/binary</title>
<path fill="none" stroke="black" d="M2385.26,-218C2683.75,-218 3577.5,-218 3577.5,-218 3577.5,-218 3577.5,-135.46 3577.5,-135.46"/>
<polygon fill="black" stroke="black" points="3579.25,-135.46 3577.5,-130.46 3575.75,-135.46 3579.25,-135.46"/>
</g>
<!-- github.com/go&#45;sql&#45;driver/mysql&#45;&gt;encoding/pem -->
<g id="edge28" class="edge">
<title>github.com/go&#45;sql&#45;driver/mysql&#45;&gt;encoding/pem</title>
<path fill="none" stroke="black" d="M2385.16,-221C2703.25,-221 3705.5,-221 3705.5,-221 3705.5,-221 3705.5,-135.49 3705.5,-135.49"/>
<polygon fill="black" stroke="black" points="3707.25,-135.49 3705.5,-130.49 3703.75,-135.49 3707.25,-135.49"/>
</g>
<!-- github.com/go&#45;sql&#45;driver/mysql&#45;&gt;errors -->
<g id="edge29" class="edge">
<title>github.com/go&#45;sql&#45;driver/mysql&#45;&gt;errors</title>
<path fill="none" stroke="black" d="M2340.5,-187.88C2340.5,-187.88 2340.5,-135.07 2340.5,-135.07"/>
<polygon fill="black" stroke="black" points="2342.25,-135.07 2340.5,-130.07 2338.75,-135.07 2342.25,-135.07"/>
</g>
<!-- github.com/go&#45;sql&#45;driver/mysql&#45;&gt;io -->
<g id="edge31" class="edge">
<title>github.com/go&#45;sql&#45;driver/mysql&#45;&gt;io</title>
<path fill="none" stroke="black" d="M2193.66,-203C1994.34,-203 1553.5,-203 1553.5,-203 1553.5,-203 1553.5,-135.42 1553.5,-135.42"/>
<polygon fill="black" stroke="black" points="1555.25,-135.42 1553.5,-130.42 1551.75,-135.42 1555.25,-135.42"/>
</g>
<!-- github.com/go&#45;sql&#45;driver/mysql&#45;&gt;os -->
<g id="edge37" class="edge">
<title>github.com/go&#45;sql&#45;driver/mysql&#45;&gt;os</title>
<path fill="none" stroke="black" d="M2200.88,-187.96C2200.88,-174.71 2200.88,-159 2200.88,-159 2200.88,-159 325,-159 325,-159 325,-159 325,-135.04 325,-135.04"/>
<polygon fill="black" stroke="black" points="326.75,-135.04 325,-130.04 323.25,-135.04 326.75,-135.04"/>
</g>
<!-- github.com/go&#45;sql&#45;driver/mysql&#45;&gt;reflect -->
<g id="edge38" class="edge">
<title>github.com/go&#45;sql&#45;driver/mysql&#45;&gt;reflect</title>
<path fill="none" stroke="black" d="M2204.31,-187.97C2204.31,-171.6 2204.31,-150 2204.31,-150 2204.31,-150 408,-150 408,-150 408,-150 408,-135.11 408,-135.11"/>
<polygon fill="black" stroke="black" points="409.75,-135.11 408,-130.11 406.25,-135.11 409.75,-135.11"/>
</g>
<!-- github.com/go&#45;sql&#45;driver/mysql&#45;&gt;sort -->
<g id="edge39" class="edge">
<title>github.com/go&#45;sql&#45;driver/mysql&#45;&gt;sort</title>
<path fill="none" stroke="black" d="M2207.75,-188C2207.75,-170.32 2207.75,-146 2207.75,-146 2207.75,-146 466.7,-146 466.7,-146 466.7,-146 466.7,-135.19 466.7,-135.19"/>
<polygon fill="black" stroke="black" points="468.45,-135.19 466.7,-130.19 464.95,-135.19 468.45,-135.19"/>
</g>
<!-- github.com/go&#45;sql&#45;driver/mysql&#45;&gt;strconv -->
<g id="edge40" class="edge">
<title>github.com/go&#45;sql&#45;driver/mysql&#45;&gt;strconv</title>
<path fill="none" stroke="black" d="M2211.19,-187.83C2211.19,-166.5 2211.19,-134 2211.19,-134 2211.19,-134 575.5,-134 575.5,-134 575.5,-134 575.5,-133.62 575.5,-133.62"/>
<polygon fill="black" stroke="black" points="577.25,-135.17 575.5,-130.17 573.75,-135.17 577.25,-135.17"/>
</g>
<!-- github.com/go&#45;sql&#45;driver/mysql&#45;&gt;strings -->
<g id="edge41" class="edge">
<title>github.com/go&#45;sql&#45;driver/mysql&#45;&gt;strings</title>
<path fill="none" stroke="black" d="M2218.06,-187.97C2218.06,-140.92 2218.06,-18 2218.06,-18 2218.06,-18 1440.9,-18 1440.9,-18"/>
<polygon fill="black" stroke="black" points="1440.9,-16.25 1435.9,-18 1440.9,-19.75 1440.9,-16.25"/>
</g>
<!-- github.com/go&#45;sql&#45;driver/mysql&#45;&gt;log -->
<g id="edge32" class="edge">
<title>github.com/go&#45;sql&#45;driver/mysql&#45;&gt;log</title>
<path fill="none" stroke="black" d="M2193.85,-201C2012.47,-201 1636.5,-201 1636.5,-201 1636.5,-201 1636.5,-135.01 1636.5,-135.01"/>
<polygon fill="black" stroke="black" points="1638.25,-135.01 1636.5,-130.01 1634.75,-135.01 1638.25,-135.01"/>
</g>
<!-- math -->
<g id="node32" class="node">
<title>math</title>
<g id="a_node32"><a xlink:href="https://godoc.org/math" xlink:title="math" target="_blank">
<path fill="palegreen" stroke="palegreen" d="M2429.5,-130C2429.5,-130 2399.5,-130 2399.5,-130 2393.5,-130 2387.5,-124 2387.5,-118 2387.5,-118 2387.5,-106 2387.5,-106 2387.5,-100 2393.5,-94 2399.5,-94 2399.5,-94 2429.5,-94 2429.5,-94 2435.5,-94 2441.5,-100 2441.5,-106 2441.5,-106 2441.5,-118 2441.5,-118 2441.5,-124 2435.5,-130 2429.5,-130"/>
<text text-anchor="middle" x="2414.5" y="-108.3" font-family="Times,serif" font-size="14.00">math</text>
</a>
</g>
</g>
<!-- github.com/go&#45;sql&#45;driver/mysql&#45;&gt;math -->
<g id="edge33" class="edge">
<title>github.com/go&#45;sql&#45;driver/mysql&#45;&gt;math</title>
<path fill="none" stroke="black" d="M2371.75,-187.88C2371.75,-160.56 2371.75,-112 2371.75,-112 2371.75,-112 2382.18,-112 2382.18,-112"/>
<polygon fill="black" stroke="black" points="2382.18,-113.75 2387.18,-112 2382.18,-110.25 2382.18,-113.75"/>
</g>
<!-- math/big -->
<g id="node33" class="node">
<title>math/big</title>
<g id="a_node33"><a xlink:href="https://godoc.org/math/big" xlink:title="math/big" target="_blank">
<path fill="palegreen" stroke="palegreen" d="M2583,-130C2583,-130 2542,-130 2542,-130 2536,-130 2530,-124 2530,-118 2530,-118 2530,-106 2530,-106 2530,-100 2536,-94 2542,-94 2542,-94 2583,-94 2583,-94 2589,-94 2595,-100 2595,-106 2595,-106 2595,-118 2595,-118 2595,-124 2589,-130 2583,-130"/>
<text text-anchor="middle" x="2562.5" y="-108.3" font-family="Times,serif" font-size="14.00">math/big</text>
</a>
</g>
</g>
<!-- github.com/go&#45;sql&#45;driver/mysql&#45;&gt;math/big -->
<g id="edge34" class="edge">
<title>github.com/go&#45;sql&#45;driver/mysql&#45;&gt;math/big</title>
<path fill="none" stroke="black" d="M2385.37,-190C2464.03,-190 2562.5,-190 2562.5,-190 2562.5,-190 2562.5,-135.09 2562.5,-135.09"/>
<polygon fill="black" stroke="black" points="2564.25,-135.09 2562.5,-130.09 2560.75,-135.09 2564.25,-135.09"/>
</g>
<!-- net -->
<g id="node34" class="node">
<title>net</title>
<g id="a_node34"><a xlink:href="https://godoc.org/net" xlink:title="net" target="_blank">
<path fill="palegreen" stroke="palegreen" d="M2666.5,-130C2666.5,-130 2636.5,-130 2636.5,-130 2630.5,-130 2624.5,-124 2624.5,-118 2624.5,-118 2624.5,-106 2624.5,-106 2624.5,-100 2630.5,-94 2636.5,-94 2636.5,-94 2666.5,-94 2666.5,-94 2672.5,-94 2678.5,-100 2678.5,-106 2678.5,-106 2678.5,-118 2678.5,-118 2678.5,-124 2672.5,-130 2666.5,-130"/>
<text text-anchor="middle" x="2651.5" y="-108.3" font-family="Times,serif" font-size="14.00">net</text>
</a>
</g>
</g>
<!-- github.com/go&#45;sql&#45;driver/mysql&#45;&gt;net -->
<g id="edge35" class="edge">
<title>github.com/go&#45;sql&#45;driver/mysql&#45;&gt;net</title>
<path fill="none" stroke="black" d="M2385.08,-193C2492.33,-193 2651.5,-193 2651.5,-193 2651.5,-193 2651.5,-135.38 2651.5,-135.38"/>
<polygon fill="black" stroke="black" points="2653.25,-135.38 2651.5,-130.38 2649.75,-135.38 2653.25,-135.38"/>
</g>
<!-- net/url -->
<g id="node35" class="node">
<title>net/url</title>
<g id="a_node35"><a xlink:href="https://godoc.org/net/url" xlink:title="net/url" target="_blank">
<path fill="palegreen" stroke="palegreen" d="M2749.5,-130C2749.5,-130 2719.5,-130 2719.5,-130 2713.5,-130 2707.5,-124 2707.5,-118 2707.5,-118 2707.5,-106 2707.5,-106 2707.5,-100 2713.5,-94 2719.5,-94 2719.5,-94 2749.5,-94 2749.5,-94 2755.5,-94 2761.5,-100 2761.5,-106 2761.5,-106 2761.5,-118 2761.5,-118 2761.5,-124 2755.5,-130 2749.5,-130"/>
<text text-anchor="middle" x="2734.5" y="-108.3" font-family="Times,serif" font-size="14.00">net/url</text>
</a>
</g>
</g>
<!-- github.com/go&#45;sql&#45;driver/mysql&#45;&gt;net/url -->
<g id="edge36" class="edge">
<title>github.com/go&#45;sql&#45;driver/mysql&#45;&gt;net/url</title>
<path fill="none" stroke="black" d="M2385.24,-196C2516.02,-196 2734.5,-196 2734.5,-196 2734.5,-196 2734.5,-135.23 2734.5,-135.23"/>
<polygon fill="black" stroke="black" points="2736.25,-135.23 2734.5,-130.23 2732.75,-135.23 2736.25,-135.23"/>
</g>
<!-- github.com/go&#45;sql&#45;driver/mysql&#45;&gt;sync -->
<g id="edge42" class="edge">
<title>github.com/go&#45;sql&#45;driver/mysql&#45;&gt;sync</title>
<path fill="none" stroke="black" d="M2193.77,-199C2031.42,-199 1719.5,-199 1719.5,-199 1719.5,-199 1719.5,-135.03 1719.5,-135.03"/>
<polygon fill="black" stroke="black" points="1721.25,-135.03 1719.5,-130.03 1717.75,-135.03 1721.25,-135.03"/>
</g>
<!-- sync/atomic -->
<g id="node37" class="node">
<title>sync/atomic</title>
<g id="a_node37"><a xlink:href="https://godoc.org/sync/atomic" xlink:title="sync/atomic" target="_blank">
<path fill="palegreen" stroke="palegreen" d="M2862,-130C2862,-130 2803,-130 2803,-130 2797,-130 2791,-124 2791,-118 2791,-118 2791,-106 2791,-106 2791,-100 2797,-94 2803,-94 2803,-94 2862,-94 2862,-94 2868,-94 2874,-100 2874,-106 2874,-106 2874,-118 2874,-118 2874,-124 2868,-130 2862,-130"/>
<text text-anchor="middle" x="2832.5" y="-108.3" font-family="Times,serif" font-size="14.00">sync/atomic</text>
</a>
</g>
</g>
<!-- github.com/go&#45;sql&#45;driver/mysql&#45;&gt;sync/atomic -->
<g id="edge43" class="edge">
<title>github.com/go&#45;sql&#45;driver/mysql&#45;&gt;sync/atomic</title>
<path fill="none" stroke="black" d="M2385.02,-199C2540.82,-199 2832.5,-199 2832.5,-199 2832.5,-199 2832.5,-135.03 2832.5,-135.03"/>
<polygon fill="black" stroke="black" points="2834.25,-135.03 2832.5,-130.03 2830.75,-135.03 2834.25,-135.03"/>
</g>
<!-- syscall -->
<g id="node38" class="node">
<title>syscall</title>
<g id="a_node38"><a xlink:href="https://godoc.org/syscall" xlink:title="syscall" target="_blank">
<path fill="palegreen" stroke="palegreen" d="M2945.5,-130C2945.5,-130 2915.5,-130 2915.5,-130 2909.5,-130 2903.5,-124 2903.5,-118 2903.5,-118 2903.5,-106 2903.5,-106 2903.5,-100 2909.5,-94 2915.5,-94 2915.5,-94 2945.5,-94 2945.5,-94 2951.5,-94 2957.5,-100 2957.5,-106 2957.5,-106 2957.5,-118 2957.5,-118 2957.5,-124 2951.5,-130 2945.5,-130"/>
<text text-anchor="middle" x="2930.5" y="-108.3" font-family="Times,serif" font-size="14.00">syscall</text>
</a>
</g>
</g>
<!-- github.com/go&#45;sql&#45;driver/mysql&#45;&gt;syscall -->
<g id="edge44" class="edge">
<title>github.com/go&#45;sql&#45;driver/mysql&#45;&gt;syscall</title>
<path fill="none" stroke="black" d="M2385.12,-201C2563.81,-201 2930.5,-201 2930.5,-201 2930.5,-201 2930.5,-135.01 2930.5,-135.01"/>
<polygon fill="black" stroke="black" points="2932.25,-135.01 2930.5,-130.01 2928.75,-135.01 2932.25,-135.01"/>
</g>
<!-- github.com/jinzhu/inflection&#45;&gt;regexp -->
<g id="edge69" class="edge">
<title>github.com/jinzhu/inflection&#45;&gt;regexp</title>
<path fill="none" stroke="black" d="M1319.75,-93.59C1319.75,-63.96 1319.75,-9 1319.75,-9 1319.75,-9 754.71,-9 754.71,-9"/>
<polygon fill="black" stroke="black" points="754.71,-7.25 749.71,-9 754.71,-10.75 754.71,-7.25"/>
</g>
<!-- github.com/jinzhu/inflection&#45;&gt;strings -->
<g id="edge70" class="edge">
<title>github.com/jinzhu/inflection&#45;&gt;strings</title>
<path fill="none" stroke="black" d="M1405.25,-93.88C1405.25,-93.88 1405.25,-41.07 1405.25,-41.07"/>
<polygon fill="black" stroke="black" points="1407,-41.07 1405.25,-36.07 1403.5,-41.07 1407,-41.07"/>
</g>
</g>
</svg>
